<svg width="90" height="90" viewBox="0 0 90 90" fill="none" xmlns="http://www.w3.org/2000/svg">
<path d="M27.2192 64.7774V65.543H39.4513V50.4863C39.4513 49.0827 41.3429 48.5723 41.9734 49.8483L43.3605 52.783C45.2521 56.7386 46.2609 60.6942 46.2609 64.7774V65.543H58.493V50.869C58.493 49.4655 60.3846 48.9551 61.0151 50.231L62.4022 53.2934C64.1677 56.9938 65.0504 60.9494 65.0504 64.7774V65.543H77.2825V50.869L75.2648 49.2103C67.0681 42.0647 62.7805 33.7708 62.7805 25.094V24.456H50.5485V39.1299C50.5485 40.5335 48.6569 41.0439 48.0264 39.7679L46.6392 36.7055C44.8738 33.0051 43.9911 29.0496 43.9911 25.2216V24.5836H31.759L31.759 39.5127C31.759 40.9163 29.8674 41.4267 29.2369 40.1507L27.8498 37.2159C25.9582 33.2604 24.9494 29.3048 24.9494 25.2216V24.5836H12.7173V39.2575L14.735 40.9163C22.9317 47.8067 27.2192 56.2282 27.2192 64.7774Z" fill="white"/>
</svg>
